<svg xmlns="http://www.w3.org/2000/svg" viewBox="0 0 64 64" width="64" height="64">
  <defs>
    <linearGradient id="grad1" x1="0%" y1="0%" x2="100%" y2="100%">
      <stop offset="0%" style="stop-color:#6366f1;stop-opacity:1" />
      <stop offset="100%" style="stop-color:#8b5cf6;stop-opacity:1" />
    </linearGradient>
  </defs>
  
  <!-- Background circle -->
  <circle cx="32" cy="32" r="30" fill="url(#grad1)"/>
  
  <!-- Laptop base -->
  <rect x="12" y="28" width="40" height="24" rx="2" fill="#ffffff" opacity="0.95"/>
  <rect x="14" y="30" width="36" height="18" rx="1" fill="#e0e7ff"/>
  
  <!-- Laptop screen -->
  <rect x="16" y="18" width="32" height="20" rx="1" fill="#ffffff" opacity="0.95"/>
  <rect x="18" y="20" width="28" height="14" rx="1" fill="#4f46e5"/>
  
  <!-- Book on screen -->
  <rect x="20" y="22" width="12" height="10" rx="1" fill="#ffffff"/>
  <line x1="26" y1="22" x2="26" y2="32" stroke="#4f46e5" stroke-width="1"/>
  <line x1="22" y1="25" x2="30" y2="25" stroke="#4f46e5" stroke-width="0.5"/>
  <line x1="22" y1="28" x2="30" y2="28" stroke="#4f46e5" stroke-width="0.5"/>
  
  <!-- Laptop keyboard indicator -->
  <rect x="18" y="48" width="28" height="2" rx="1" fill="#6366f1" opacity="0.6"/>
  <circle cx="22" cy="49" r="0.8" fill="#6366f1"/>
  <circle cx="26" cy="49" r="0.8" fill="#6366f1"/>
  <circle cx="30" cy="49" r="0.8" fill="#6366f1"/>
  <circle cx="34" cy="49" r="0.8" fill="#6366f1"/>
  <circle cx="38" cy="49" r="0.8" fill="#6366f1"/>
  <circle cx="42" cy="49" r="0.8" fill="#6366f1"/>
</svg>
